<?xml version="1.0" encoding="UTF-8"?>
<svg version="1.1" xmlns="http://www.w3.org/2000/svg" width="127" height="70">
<path d="M0 0 C1.82388613 0.45672272 3.63439639 0.96710823 5.4375 1.5 C11.34913214 3.0464436 16.0328615 3.06858331 22 2 C23.794375 1.7215625 23.794375 1.7215625 25.625 1.4375 C26.40875 1.293125 27.1925 1.14875 28 1 C27.67 4.63 27.34 8.26 27 12 C38.55 12 50.1 12 62 12 C62 13.32 62 14.64 62 16 C61.21625 16.226875 60.4325 16.45375 59.625 16.6875 C56.27673917 18.36163042 56.2740639 19.57595327 55 23 C52.5 25.6875 52.5 25.6875 50 28 C49.34 28.66 48.68 29.32 48 30 C45.66162109 30.22705078 45.66162109 30.22705078 42.7734375 30.1953125 C41.2265625 30.18564453 41.2265625 30.18564453 39.6484375 30.17578125 C38.56820312 30.15902344 37.48796875 30.14226563 36.375 30.125 C35.28703125 30.11597656 34.1990625 30.10695313 33.078125 30.09765625 C30.38519848 30.07403409 27.69270745 30.04109556 25 30 C25.37109375 27.58203125 25.37109375 27.58203125 26 25 C28.0625 23.6875 28.0625 23.6875 30 23 C30 22.01 30 21.02 30 20 C25.05 24.95 20.1 29.9 15 35 C11.80107719 33.4005386 9.84646265 32.17187081 7.25 29.875 C6.63640625 29.33617188 6.0228125 28.79734375 5.390625 28.2421875 C4.93171875 27.83226563 4.4728125 27.42234375 4 27 C3.505 28.485 3.505 28.485 3 30 C-0.72875388 30.14560195 -4.45677434 30.23417043 -8.1875 30.3125 C-9.24259766 30.35439453 -10.29769531 30.39628906 -11.38476562 30.43945312 C-19.26580134 30.56375968 -19.26580134 30.56375968 -23.0625 27.6484375 C-24.0215625 26.33746094 -24.0215625 26.33746094 -25 25 C-25.928125 24.113125 -26.85625 23.22625 -27.8125 22.3125 C-30 20 -30 20 -30 18 C-32.475 17.01 -32.475 17.01 -35 16 C-35 14.68 -35 13.36 -35 12 C-23.45 12 -11.9 12 0 12 C0.05056795 6.15379613 0.05056795 6.15379613 -1 1 C-0.67 0.67 -0.34 0.34 0 0 Z M5 16 C4.77390663 18.30793446 4.77390663 18.30793446 7.25 20.4375 C9.4312655 22.47004286 11.56743 24.28819148 14 26 C17.26008643 22.83047153 20.22237877 19.60062011 23 16 C20.02942405 15.93091684 17.34790099 15.92363149 14.4375 16.5625 C11.65906874 17.06119279 9.72187586 16.66207791 7 16 C6.34 16 5.68 16 5 16 Z M-5 19 C-4.01 19.495 -4.01 19.495 -3 20 C-2.67 20.99 -2.34 21.98 -2 23 C-1.34 22.67 -0.68 22.34 0 22 C-0.66 21.01 -1.32 20.02 -2 19 C-2.99 19 -3.98 19 -5 19 Z " fill="#352919" transform="translate(50,16)"/>
<path d="M0 0 C11.55 0 23.1 0 35 0 C35 0.33 35 0.66 35 1 C30.38 1.33 25.76 1.66 21 2 C20.67 2.99 20.34 3.98 20 5 C24.29 5 28.58 5 33 5 C32.67 5.99 32.34 6.98 32 8 C32.804375 8.721875 33.60875 9.44375 34.4375 10.1875 C37.10398851 13.11413373 37.4507338 14.24352424 38 18 C34.27124612 18.14560195 30.54322566 18.23417043 26.8125 18.3125 C25.75740234 18.35439453 24.70230469 18.39628906 23.61523438 18.43945312 C15.73419866 18.56375968 15.73419866 18.56375968 11.9375 15.6484375 C10.9784375 14.33746094 10.9784375 14.33746094 10 13 C9.071875 12.113125 8.14375 11.22625 7.1875 10.3125 C5 8 5 8 5 6 C2.525 5.01 2.525 5.01 0 4 C0 2.68 0 1.36 0 0 Z " fill="#2C2414" transform="translate(15,28)"/>
<path d="M0 0 C2.91765891 -0.10806144 5.83131125 -0.18732877 8.75 -0.25 C9.9875 -0.30027344 9.9875 -0.30027344 11.25 -0.3515625 C17.43157055 -0.45126525 17.43157055 -0.45126525 20.42578125 1.92578125 C21.20501953 2.95251953 21.20501953 2.95251953 22 4 C22.804375 4.474375 23.60875 4.94875 24.4375 5.4375 C27.42514365 7.25923393 29.60322121 9.46626243 32 12 C33.21315682 11.13169994 34.42022447 10.25489224 35.625 9.375 C36.29789063 8.88773438 36.97078125 8.40046875 37.6640625 7.8984375 C39.94725908 6.200135 39.94725908 6.200135 41.14868164 4.46557617 C43.48651208 1.50104743 45.07275556 0.16106766 48.8671875 -0.49804688 C52.32559571 -0.62696978 55.72945702 -0.57203208 59.1875 -0.4375 C60.96930664 -0.40946289 60.96930664 -0.40946289 62.78710938 -0.38085938 C71.39967653 -0.20010782 71.39967653 -0.20010782 75 1 C74.67 1.99 74.34 2.98 74 4 C73.29093506 3.95174072 72.58187012 3.90348145 71.85131836 3.85375977 C56.5337009 2.64213872 56.5337009 2.64213872 42.93359375 8.40625 C39.22444754 11.9450761 35.96242631 15.818854 33 20 C30.53199953 18.84826645 28.95216435 17.95216435 27 16 C26.2575 15.773125 25.515 15.54625 24.75 15.3125 C20.88359262 13.46716921 18.32301234 10.58430426 16 7 C16 6.01 16 5.02 16 4 C11.71 4 7.42 4 3 4 C3 3.34 3 2.68 3 2 C2.01 1.34 1.02 0.68 0 0 Z " fill="#B3A671" transform="translate(32,29)"/>
<path d="M0 0 C0.83789062 0.144375 1.67578125 0.28875 2.5390625 0.4375 C1.5490625 1.7575 0.5590625 3.0775 -0.4609375 4.4375 C2.97649168 4.49552698 6.41379503 4.53110486 9.8515625 4.5625 C11.31625977 4.58763672 11.31625977 4.58763672 12.81054688 4.61328125 C13.74833984 4.61972656 14.68613281 4.62617187 15.65234375 4.6328125 C16.94845581 4.64852295 16.94845581 4.64852295 18.27075195 4.66455078 C20.82086971 4.58840168 20.82086971 4.58840168 23.5390625 2.4375 C21.98209843 6.25913907 19.50497566 8.62368495 16.5390625 11.4375 C16.2090625 11.7675 15.8790625 12.0975 15.5390625 12.4375 C13.83133892 12.52463831 12.12007601 12.54450007 10.41015625 12.53515625 C8.85844727 12.53032227 8.85844727 12.53032227 7.27539062 12.52539062 C6.18677734 12.51701172 5.09816406 12.50863281 3.9765625 12.5 C2.3378418 12.49323242 2.3378418 12.49323242 0.66601562 12.48632812 C-2.04302245 12.47449826 -4.75195349 12.45801543 -7.4609375 12.4375 C-7.08984375 10.01953125 -7.08984375 10.01953125 -6.4609375 7.4375 C-4.3984375 6.125 -4.3984375 6.125 -2.4609375 5.4375 C-2.4609375 4.4475 -2.4609375 3.4575 -2.4609375 2.4375 C-7.4109375 7.3875 -12.3609375 12.3375 -17.4609375 17.4375 C-21.4693409 15.4332983 -22.87503407 13.94694037 -25.4609375 10.4375 C-22.79427083 11.77083333 -20.12760417 13.10416667 -17.4609375 14.4375 C-17.06825684 14.01339844 -16.67557617 13.58929688 -16.27099609 13.15234375 C-14.47534944 11.23164031 -12.65630166 9.33478095 -10.8359375 7.4375 C-9.90974609 6.43589844 -9.90974609 6.43589844 -8.96484375 5.4140625 C-4.23554644 0.53541896 -4.23554644 0.53541896 0 0 Z " fill="#37321B" transform="translate(82.4609375,33.5625)"/>
<path d="M0 0 C6.27 0 12.54 0 19 0 C16 6 16 6 14 9 C15.99983534 8.20882096 15.99983534 8.20882096 18 7 C18.33 6.01 18.66 5.02 19 4 C19.66 4 20.32 4 21 4 C20.25 8.75 20.25 8.75 18 11 C11.11029308 12.64293011 4.76246694 11.74097553 -2 10 C-2.33 8.35 -2.66 6.7 -3 5 C-2.34 4.67 -1.68 4.34 -1 4 C-0.731875 4.639375 -0.46375 5.27875 -0.1875 5.9375 C0.88667752 8.33131686 0.88667752 8.33131686 4 9 C2.35 6.69 0.7 4.38 -1 2 C-0.67 1.34 -0.34 0.68 0 0 Z " fill="#DFCF88" transform="translate(55,20)"/>
<path d="M0 0 C2.91765891 -0.10806144 5.83131125 -0.18732877 8.75 -0.25 C9.9875 -0.30027344 9.9875 -0.30027344 11.25 -0.3515625 C17.43313512 -0.45129049 17.43313512 -0.45129049 20.4140625 1.921875 C20.93742187 2.60765625 21.46078125 3.2934375 22 4 C22.86625 4.495 23.7325 4.99 24.625 5.5 C27.19144725 7.12091405 27.94089963 8.2078263 29 11 C26.69 10.34 24.38 9.68 22 9 C22 9.99 22 10.98 22 12 C22.99 12.33 23.98 12.66 25 13 C25 13.66 25 14.32 25 15 C20.70073737 13.40768051 18.64994267 10.60686641 16 7 C16 6.01 16 5.02 16 4 C11.71 4 7.42 4 3 4 C3 3.34 3 2.68 3 2 C2.01 1.34 1.02 0.68 0 0 Z " fill="#BDAD79" transform="translate(32,29)"/>
<path d="M0 0 C0.92039062 0.04189453 1.84078125 0.08378906 2.7890625 0.12695312 C3.72492188 0.14951172 4.66078125 0.17207031 5.625 0.1953125 C7.93131924 0.25414717 10.23437088 0.33628167 12.5390625 0.43945312 C12.5390625 1.42945313 12.5390625 2.41945312 12.5390625 3.43945312 C10.5390625 5.43945312 10.5390625 5.43945312 8.29248047 5.66650391 C7.38127441 5.65603027 6.47006836 5.64555664 5.53125 5.63476562 C4.05205078 5.62509766 4.05205078 5.62509766 2.54296875 5.61523438 C0.99416016 5.59009766 0.99416016 5.59009766 -0.5859375 5.56445312 C-1.62621094 5.55542969 -2.66648437 5.54640625 -3.73828125 5.53710938 C-6.31272842 5.51349059 -8.88671962 5.48055461 -11.4609375 5.43945312 C-8.49070905 0.01963972 -5.69951535 -0.10325209 0 0 Z " fill="#98865C" transform="translate(86.4609375,39.560546875)"/>
<path d="M0 0 C1.95486328 -0.07347656 1.95486328 -0.07347656 3.94921875 -0.1484375 C5.05910156 0.02429687 6.16898438 0.19703125 7.3125 0.375 C8.3025 2.025 9.2925 3.675 10.3125 5.375 C3.0525 5.375 -4.2075 5.375 -11.6875 5.375 C-12.3475 4.055 -13.0075 2.735 -13.6875 1.375 C-9.1073807 0.50868286 -4.65967086 0.1205487 0 0 Z " fill="#8D7D50" transform="translate(41.6875,39.625)"/>
<path d="M0 0 C1.15177734 0.00451172 2.30355469 0.00902344 3.49023438 0.01367188 C6.30604518 0.02535574 9.12174398 0.04173719 11.9375 0.0625 C11.9375 0.3925 11.9375 0.7225 11.9375 1.0625 C7.3175 1.3925 2.6975 1.7225 -2.0625 2.0625 C-2.3925 3.0525 -2.7225 4.0425 -3.0625 5.0625 C-5.66777105 5.17042837 -8.26858311 5.24974878 -10.875 5.3125 C-11.61298828 5.34601562 -12.35097656 5.37953125 -13.11132812 5.4140625 C-15.26953125 5.453125 -15.26953125 5.453125 -19.0625 5.0625 C-21.07421875 3.046875 -21.07421875 3.046875 -22.0625 1.0625 C-14.67593587 0.06770292 -7.44694355 -0.05586282 0 0 Z " fill="#745F36" transform="translate(38.0625,27.9375)"/>
<path d="M0 0 C0.90596924 0.02094727 1.81193848 0.04189453 2.74536133 0.06347656 C4.21972656 0.0828125 4.21972656 0.0828125 5.72387695 0.10253906 C6.74803711 0.13605469 7.77219727 0.16957031 8.82739258 0.20410156 C10.38103516 0.23117188 10.38103516 0.23117188 11.96606445 0.25878906 C14.52493541 0.30595719 17.081951 0.37176099 19.63989258 0.45410156 C18.45898438 2.4296875 18.45898438 2.4296875 16.63989258 4.45410156 C14.27978516 4.90820312 14.27978516 4.90820312 11.53442383 4.84472656 C10.06005859 4.82539062 10.06005859 4.82539062 8.5559082 4.80566406 C7.53174805 4.77214844 6.50758789 4.73863281 5.45239258 4.70410156 C3.89875 4.67703125 3.89875 4.67703125 2.3137207 4.64941406 C-0.24515026 4.60224593 -2.80216584 4.53644214 -5.36010742 4.45410156 C-3.04824808 0.58650475 -3.04824808 0.58650475 0 0 Z " fill="#E0D493" transform="translate(86.360107421875,34.5458984375)"/>
<path d="M0 0 C4.64157706 0.62724014 4.64157706 0.62724014 6.5625 2.625 C7.036875 3.07875 7.51125 3.5325 8 4 C11.171632 3.6828368 14.07030051 2.22070812 17 1 C16.58578031 5.83256305 14.53586014 7.82679218 11 11 C8.08728356 9.65319085 5.70671723 8.12551255 3.25 6.0625 C2.63640625 5.55847656 2.0228125 5.05445313 1.390625 4.53515625 C0 3 0 3 0 0 Z " fill="#EAE2A1" transform="translate(54,38)"/>
<path d="M0 0 C3.4372166 -0.11604679 6.87393086 -0.18719508 10.3125 -0.25 C11.28896484 -0.28351562 12.26542969 -0.31703125 13.27148438 -0.3515625 C14.20927734 -0.36445312 15.14707031 -0.37734375 16.11328125 -0.390625 C16.97735596 -0.41157227 17.84143066 -0.43251953 18.73168945 -0.45410156 C21 0 21 0 22.80541992 2.02441406 C23.19963135 2.67635742 23.59384277 3.32830078 24 4 C20.5627834 4.11604679 17.12606914 4.18719508 13.6875 4.25 C12.22280273 4.30027344 12.22280273 4.30027344 10.72851562 4.3515625 C9.79072266 4.36445312 8.85292969 4.37734375 7.88671875 4.390625 C6.59060669 4.4220459 6.59060669 4.4220459 5.26831055 4.45410156 C3 4 3 4 1.19458008 1.97558594 C0.60326294 0.9976709 0.60326294 0.9976709 0 0 Z " fill="#DBCF93" transform="translate(22,35)"/>
<path d="M0 0 C2.31 0 4.62 0 7 0 C7 0.33 7 0.66 7 1 C5.35 1.33 3.7 1.66 2 2 C4.79177569 4.79177569 6.63183572 4.31213484 10.5390625 4.4140625 C11.84101563 4.45273437 13.14296875 4.49140625 14.484375 4.53125 C15.86457862 4.56270763 17.24478704 4.59395491 18.625 4.625 C20.01304541 4.66317934 21.40106711 4.70223105 22.7890625 4.7421875 C26.19257185 4.83672943 29.59607165 4.92227897 33 5 C33 5.33 33 5.66 33 6 C29.68856994 6.72413373 26.52155779 7.16354255 23.13671875 7.31640625 C21.80737305 7.37924805 21.80737305 7.37924805 20.45117188 7.44335938 C19.0831543 7.50233398 19.0831543 7.50233398 17.6875 7.5625 C16.75615234 7.60568359 15.82480469 7.64886719 14.86523438 7.69335938 C12.57695546 7.79897225 10.28857628 7.90107752 8 8 C8.99 9.485 8.99 9.485 10 11 C8.0625 10.1875 8.0625 10.1875 6 9 C5.67 8.01 5.34 7.02 5 6 C2.49552484 4.78130071 2.49552484 4.78130071 0 4 C0 2.68 0 1.36 0 0 Z " fill="#56441F" transform="translate(15,28)"/>
<path d="M0 0 C2.97 0 5.94 0 9 0 C8.34 1.32 7.68 2.64 7 4 C4.9375 4.625 4.9375 4.625 3 5 C2.67 5.66 2.34 6.32 2 7 C-1.39612414 6.8604947 -4.79181458 6.71227678 -8.1875 6.5625 C-9.14720703 6.52318359 -10.10691406 6.48386719 -11.09570312 6.44335938 C-12.02705078 6.40146484 -12.95839844 6.35957031 -13.91796875 6.31640625 C-14.77156982 6.27974854 -15.6251709 6.24309082 -16.50463867 6.20532227 C-19.06454594 5.99468906 -21.49333243 5.55158464 -24 5 C-24 4.67 -24 4.34 -24 4 C-15.42 3.67 -6.84 3.34 2 3 C2.33 2.34 2.66 1.68 3 1 C2.01 0.67 1.02 0.34 0 0 Z " fill="#58461F" transform="translate(104,29)"/>
<path d="M0 0 C2.64 0 5.28 0 8 0 C6.46395304 3.14191424 4.94268841 6.08596738 3 9 C4.99983534 8.20882096 4.99983534 8.20882096 7 7 C7.33 6.01 7.66 5.02 8 4 C8.66 4 9.32 4 10 4 C9.25 8.75 9.25 8.75 7 11 C3.375 11.125 3.375 11.125 0 11 C0.66 10.67 1.32 10.34 2 10 C1.979375 8.88625 1.95875 7.7725 1.9375 6.625 C2 3 2 3 3 1 C2.01 0.67 1.02 0.34 0 0 Z " fill="#B39E69" transform="translate(66,20)"/>
<path d="M0 0 C4.95 0 9.9 0 15 0 C15 0.99 15 1.98 15 3 C10.05 3 5.1 3 0 3 C0 2.01 0 1.02 0 0 Z " fill="#DED093" transform="translate(79,41)"/>
<path d="M0 0 C4.95 0 9.9 0 15 0 C15 0.99 15 1.98 15 3 C10.05 3 5.1 3 0 3 C0 2.01 0 1.02 0 0 Z " fill="#D5C381" transform="translate(32,41)"/>
<path d="M0 0 C2.62187494 1.04874998 3.79371361 1.64931313 5.25 4.125 C5.4975 4.74375 5.745 5.3625 6 6 C3.69 5.34 1.38 4.68 -1 4 C-1 4.99 -1 5.98 -1 7 C-0.01 7.33 0.98 7.66 2 8 C2 8.66 2 9.32 2 10 C-2.2742558 8.4169423 -4.26531794 5.49431596 -7 2 C-6.34 1.67 -5.68 1.34 -5 1 C-5 1.66 -5 2.32 -5 3 C-3.02463255 2.65213292 -3.02463255 2.65213292 -1 2 C-0.67 1.34 -0.34 0.68 0 0 Z " fill="#7E764C" transform="translate(55,34)"/>
<path d="M0 0 C1.74965358 -0.05429959 3.49979787 -0.09292823 5.25 -0.125 C6.22453125 -0.14820312 7.1990625 -0.17140625 8.203125 -0.1953125 C11 0 11 0 15 2 C11.37 1.67 7.74 1.34 4 1 C4.99476062 4.9790425 5.30632425 5.42344058 8 8 C8 8.66 8 9.32 8 10 C4.74275395 9.43840585 2.96209599 8.70956113 1 6 C0.3125 2.8125 0.3125 2.8125 0 0 Z " fill="#675631" transform="translate(51,19)"/>
<path d="M0 0 C6.93 0 13.86 0 21 0 C21 0.33 21 0.66 21 1 C15.72 1.66 10.44 2.32 5 3 C5.33 3.99 5.66 4.98 6 6 C3 5 3 5 0 0 Z " fill="#3F3012" transform="translate(24,39)"/>
<path d="M0 0 C6.64615385 1.47692308 6.64615385 1.47692308 8.4375 4.125 C8.7159375 5.053125 8.7159375 5.053125 9 6 C8.01 6.66 7.02 7.32 6 8 C5.34 7.67 4.68 7.34 4 7 C4 6.34 4 5.68 4 5 C3.34 5 2.68 5 2 5 C2 4.34 2 3.68 2 3 C1.01 2.67 0.02 2.34 -1 2 C-0.67 1.34 -0.34 0.68 0 0 Z " fill="#C5B678" transform="translate(46,30)"/>
<path d="M0 0 C1.258125 -0.020625 2.51625 -0.04125 3.8125 -0.0625 C4.52019531 -0.07410156 5.22789063 -0.08570312 5.95703125 -0.09765625 C8 0 8 0 11 1 C10.67 1.99 10.34 2.98 10 4 C2.25 4.125 2.25 4.125 0 3 C0 2.01 0 1.02 0 0 Z " fill="#A0804D" transform="translate(96,29)"/>
<path d="M0 0 C2.64 0 5.28 0 8 0 C8 0.99 8 1.98 8 3 C8.66 3.33 9.32 3.66 10 4 C6.37 4 2.74 4 -1 4 C-0.67 2.68 -0.34 1.36 0 0 Z " fill="#B39A66" transform="translate(88,29)"/>
<path d="M0 0 C3.3 0 6.6 0 10 0 C10 1.65 10 3.3 10 5 C9.34 5 8.68 5 8 5 C7.67 6.32 7.34 7.64 7 9 C5.68 9.33 4.36 9.66 3 10 C4.33333333 7.33333333 5.66666667 4.66666667 7 2 C4.69 1.67 2.38 1.34 0 1 C0 0.67 0 0.34 0 0 Z " fill="#685630" transform="translate(66,19)"/>
<path d="M0 0 C8.57142857 -0.28571429 8.57142857 -0.28571429 12 2 C8.89608238 3.83935859 6.60570855 4.55472439 3 4 C1.1875 2 1.1875 2 0 0 Z " fill="#937346" transform="translate(16,29)"/>
<path d="M0 0 C2.64 0 5.28 0 8 0 C6.9375 2 6.9375 2 5 4 C1.3125 4.25 1.3125 4.25 -2 4 C-1.34 2.68 -0.68 1.36 0 0 Z " fill="#B19D69" transform="translate(98,35)"/>
<path d="M0 0 C0.33 1.32 0.66 2.64 1 4 C-0.65 5.32 -2.3 6.64 -4 8 C-4 7.01 -4 6.02 -4 5 C-4.99 4.67 -5.98 4.34 -7 4 C-4.69 2.68 -2.38 1.36 0 0 Z " fill="#DAD191" transform="translate(70,39)"/>
<path d="M0 0 C0.763125 0.0825 1.52625 0.165 2.3125 0.25 C2.6425 1.57 2.9725 2.89 3.3125 4.25 C0.3425 4.25 -2.6275 4.25 -5.6875 4.25 C-3.34903846 0.31153846 -3.34903846 0.31153846 0 0 Z " fill="#A89164" transform="translate(86.6875,34.75)"/>
<path d="M0 0 C2.3125 -0.25 2.3125 -0.25 5 0 C6.8125 2 6.8125 2 8 4 C5.03 4 2.06 4 -1 4 C-0.67 2.68 -0.34 1.36 0 0 Z " fill="#B19968" transform="translate(38,35)"/>
<path d="M0 0 C6.6 0 13.2 0 20 0 C20 0.99 20 1.98 20 3 C19.01 3.495 19.01 3.495 18 4 C18 3.01 18 2.02 18 1 C12.06 1 6.12 1 0 1 C0 0.67 0 0.34 0 0 Z " fill="#887849" transform="translate(79,40)"/>
<path d="M0 0 C0.556875 0.226875 1.11375 0.45375 1.6875 0.6875 C0.6975 1.0175 -0.2925 1.3475 -1.3125 1.6875 C-2.01187532 3.00397119 -2.67979133 4.33772151 -3.3125 5.6875 C-4.3025 6.1825 -4.3025 6.1825 -5.3125 6.6875 C-5.3125 5.6975 -5.3125 4.7075 -5.3125 3.6875 C-5.9725 3.3575 -6.6325 3.0275 -7.3125 2.6875 C-2.88173077 -0.38942308 -2.88173077 -0.38942308 0 0 Z " fill="#CCBA7D" transform="translate(81.3125,30.3125)"/>
<path d="M0 0 C2.97 0 5.94 0 9 0 C8.34 1.32 7.68 2.64 7 4 C5.35 4 3.7 4 2 4 C2.33 3.01 2.66 2.02 3 1 C2.01 0.67 1.02 0.34 0 0 Z " fill="#745939" transform="translate(104,29)"/>
<path d="M0 0 C6.0546875 -0.1953125 6.0546875 -0.1953125 8 0 C8.66 0.66 9.32 1.32 10 2 C7 4 7 4 3 4 C3 3.34 3 2.68 3 2 C2.01 1.34 1.02 0.68 0 0 Z " fill="#B79F6B" transform="translate(32,29)"/>
<path d="M0 0 C2.31 0 4.62 0 7 0 C7 0.33 7 0.66 7 1 C5.35 1.33 3.7 1.66 2 2 C3.95216435 3.95216435 5.53199953 4.84826645 8 6 C7.34 6 6.68 6 6 6 C5.67 6.66 5.34 7.32 5 8 C5 7.34 5 6.68 5 6 C2.525 5.01 2.525 5.01 0 4 C0 2.68 0 1.36 0 0 Z " fill="#352915" transform="translate(15,28)"/>
<path d="M0 0 C0 3 0 3 -2.3125 5.6875 C-5 8 -5 8 -8 8 C-7.34 7.01 -6.68 6.02 -6 5 C-6.99 4.34 -7.98 3.68 -9 3 C-7.88625 2.87625 -6.7725 2.7525 -5.625 2.625 C-1.96896323 2.3534187 -1.96896323 2.3534187 0 0 Z " fill="#3B2D16" transform="translate(105,36)"/>
<path d="M0 0 C0.7425 0.78375 1.485 1.5675 2.25 2.375 C4.54433318 4.56504531 6.12158858 5.82731386 9 7 C2.58131488 7.3633218 2.58131488 7.3633218 0 5.75 C-1 4 -1 4 -0.6875 1.8125 C-0.460625 1.214375 -0.23375 0.61625 0 0 Z " fill="#A29060" transform="translate(53,24)"/>
<path d="M0 0 C4.75 0.875 4.75 0.875 7 2 C6 4 6 4 3 6 C1.5 4.6875 1.5 4.6875 0 3 C0 2.01 0 1.02 0 0 Z " fill="#D2C989" transform="translate(54,38)"/>
<path d="M0 0 C2.31 0 4.62 0 7 0 C7 0.99 7 1.98 7 3 C4.69 3 2.38 3 0 3 C0 2.01 0 1.02 0 0 Z " fill="#C6AF71" transform="translate(79,41)"/>
<path d="M0 0 C1.32 0 2.64 0 4 0 C4 0.99 4 1.98 4 3 C7.3 3 10.6 3 14 3 C14 3.33 14 3.66 14 4 C10.04 4 6.08 4 2 4 C1.34 2.68 0.68 1.36 0 0 Z " fill="#9D8A5D" transform="translate(28,41)"/>
<path d="M0 0 C0.66 0 1.32 0 2 0 C2 0.66 2 1.32 2 2 C2.99 2.33 3.98 2.66 5 3 C7.1875 4.9375 7.1875 4.9375 9 7 C9 7.66 9 8.32 9 9 C4.71930097 7.41455592 2.70478088 4.5312417 0 1 C0 0.67 0 0.34 0 0 Z " fill="#2F2C1A" transform="translate(48,35)"/>
<path d="M0 0 C1.98 0 3.96 0 6 0 C6.33 1.32 6.66 2.64 7 4 C4.625 3.6875 4.625 3.6875 2 3 C1.34 2.01 0.68 1.02 0 0 Z " fill="#AC9465" transform="translate(22,35)"/>
<path d="M0 0 C1.45880109 0.14107747 2.91703551 0.28802415 4.375 0.4375 C5.59316406 0.55931641 5.59316406 0.55931641 6.8359375 0.68359375 C9 1 9 1 11 2 C11 2.66 11 3.32 11 4 C7.37 3.34 3.74 2.68 0 2 C0 1.34 0 0.68 0 0 Z " fill="#403C29" transform="translate(54,30)"/>
<path d="M0 0 C1.98 0 3.96 0 6 0 C5.01 0.66 4.02 1.32 3 2 C2.27617533 4.05925139 2.27617533 4.05925139 2 6 C1.01 4.68 0.02 3.36 -1 2 C-0.67 1.34 -0.34 0.68 0 0 Z " fill="#BAA669" transform="translate(55,20)"/>
<path d="M0 0 C0.33 0.66 0.66 1.32 1 2 C1.66 2 2.32 2 3 2 C2.67 3.32 2.34 4.64 2 6 C1.01 5.67 0.02 5.34 -1 5 C-0.67 3.35 -0.34 1.7 0 0 Z " fill="#F1E398" transform="translate(63,26)"/>
</svg>
